<svg width="66" height="18" viewBox="0 0 66 18" fill="none" xmlns="http://www.w3.org/2000/svg">
<path d="M7.8615 0.406022C9.28047 0.406022 10.5087 0.657921 11.5463 1.16172C12.5991 1.66552 13.4077 2.38059 13.9723 3.30692C14.5368 4.23326 14.8191 5.33024 14.8191 6.59786C14.8191 7.84923 14.5368 8.94621 13.9723 9.8888C13.4077 10.8151 12.5991 11.5302 11.5463 12.034C10.5087 12.5216 9.28047 12.7653 7.8615 12.7653H4.63446V17.4702H0.926811V0.406022H7.8615ZM7.65551 9.54752C8.76934 9.54752 9.61615 9.29562 10.1959 8.79182C10.7757 8.27177 11.0656 7.54045 11.0656 6.59786C11.0656 5.63902 10.7757 4.9077 10.1959 4.4039C9.61615 3.88385 8.76934 3.62383 7.65551 3.62383H4.63446V9.54752H7.65551Z" fill="#27A359"/>
<path d="M25.4482 17.7627C23.7851 17.7627 22.2822 17.3808 20.9395 16.6169C19.6121 15.8531 18.5669 14.8049 17.804 13.4723C17.0564 12.1234 16.6825 10.612 16.6825 8.93809C16.6825 7.26418 17.0564 5.76091 17.804 4.42828C18.5669 3.0794 19.6121 2.02305 20.9395 1.25923C22.2822 0.495406 23.7851 0.113495 25.4482 0.113495C27.1113 0.113495 28.6065 0.495406 29.934 1.25923C31.2614 2.02305 32.3066 3.0794 33.0695 4.42828C33.8324 5.76091 34.2138 7.26418 34.2138 8.93809C34.2138 10.612 33.8324 12.1234 33.0695 13.4723C32.3066 14.8049 31.2614 15.8531 29.934 16.6169C28.6065 17.3808 27.1113 17.7627 25.4482 17.7627ZM25.4482 14.3986C26.3942 14.3986 27.2486 14.1711 28.0115 13.716C28.7744 13.2448 29.3694 12.5947 29.7967 11.7659C30.2391 10.937 30.4604 9.99444 30.4604 8.93809C30.4604 7.88174 30.2391 6.93915 29.7967 6.11032C29.3694 5.28149 28.7744 4.63955 28.0115 4.18451C27.2486 3.71321 26.3942 3.47757 25.4482 3.47757C24.5022 3.47757 23.6477 3.71321 22.8849 4.18451C22.122 4.63955 21.5193 5.28149 21.0768 6.11032C20.6496 6.93915 20.436 7.88174 20.436 8.93809C20.436 9.99444 20.6496 10.937 21.0768 11.7659C21.5193 12.5947 22.122 13.2448 22.8849 13.716C23.6477 14.1711 24.5022 14.3986 25.4482 14.3986Z" fill="#27A359"/>
<path d="M47.2077 17.4702L44.118 12.7166H40.7079V17.4702H37.0003V0.406022H43.9349C45.3539 0.406022 46.5822 0.657921 47.6197 1.16172C48.6725 1.66552 49.4812 2.38059 50.0457 3.30692C50.6102 4.23326 50.8925 5.33024 50.8925 6.59786C50.8925 7.86549 50.6026 8.96247 50.0228 9.8888C49.4583 10.7989 48.6496 11.4977 47.5968 11.9853L51.19 17.4702H47.2077ZM47.1391 6.59786C47.1391 5.63902 46.8492 4.9077 46.2694 4.4039C45.6896 3.88385 44.8428 3.62383 43.729 3.62383H40.7079V9.5719H43.729C44.8428 9.5719 45.6896 9.31187 46.2694 8.79182C46.8492 8.27177 47.1391 7.54045 47.1391 6.59786Z" fill="#27A359"/>
<path d="M56.9251 3.62383H51.7985V0.406022H65.7594V3.62383H60.6328V17.4702H56.9251V3.62383Z" fill="#27A359"/>
</svg>
