<svg width="105" height="18" viewBox="0 0 105 18" fill="none" xmlns="http://www.w3.org/2000/svg">
<path d="M5.52512 3.62384H0.398491V0.406036H14.3594V3.62384H9.23277V17.4702H5.52512V3.62384Z" fill="#1F8247"/>
<path d="M26.5618 17.4702L23.4721 12.7166H20.062V17.4702H16.3543V0.406036H23.289C24.708 0.406036 25.9362 0.657936 26.9738 1.16173C28.0265 1.66553 28.8352 2.3806 29.3998 3.30694C29.9643 4.23328 30.2466 5.33026 30.2466 6.59788C30.2466 7.8655 29.9567 8.96248 29.3769 9.88882C28.8123 10.7989 28.0037 11.4977 26.9509 11.9853L30.5441 17.4702H26.5618ZM26.4931 6.59788C26.4931 5.63904 26.2032 4.90772 25.6234 4.40392C25.0436 3.88387 24.1968 3.62384 23.083 3.62384H20.062V9.57191H23.083C24.1968 9.57191 25.0436 9.31189 25.6234 8.79184C26.2032 8.27179 26.4931 7.54047 26.4931 6.59788Z" fill="#1F8247"/>
<path d="M43.7349 13.8136H36.2967L34.8777 17.4702H31.0785L38.2192 0.406036H41.8811L49.0446 17.4702H45.1539L43.7349 13.8136ZM42.5677 10.8152L40.0272 4.28203L37.4868 10.8152H42.5677Z" fill="#1F8247"/>
<path d="M65.4001 0.406036V17.4702H62.3561L54.3686 7.1098V17.4702H50.7068V0.406036H53.7736L61.7382 10.7664V0.406036H65.4001Z" fill="#1F8247"/>
<path d="M82.1673 14.2524V17.4702H68.1606V14.9105L76.9491 3.62384H68.3437V0.406036H81.824V2.96566L73.0584 14.2524H82.1673Z" fill="#1F8247"/>
<path d="M84.5452 0.406036H88.2528V17.4702H84.5452V0.406036Z" fill="#1F8247"/>
<path d="M95.3735 3.62384H90.2468V0.406036H104.208V3.62384H99.0811V17.4702H95.3735V3.62384Z" fill="#1F8247"/>
</svg>
