<svg width="179" height="16" viewBox="0 0 179 16" fill="none" xmlns="http://www.w3.org/2000/svg">
<path d="M5.82276 0.44368C6.9976 0.44368 8.05051 0.721101 8.98151 1.27594C9.91251 1.81898 10.6385 2.58042 11.1594 3.56025C11.6914 4.54007 11.9574 5.64976 11.9574 6.8893C11.9574 8.12885 11.6914 9.23853 11.1594 10.2184C10.6385 11.1982 9.91251 11.9655 8.98151 12.5204C8.05051 13.0634 6.9976 13.3349 5.82276 13.3349C4.74768 13.3349 3.77789 13.1342 2.91339 12.7329C2.05997 12.3315 1.35064 11.753 0.785389 10.9975L2.86351 8.97882C3.63935 9.94684 4.57035 10.4309 5.65651 10.4309C6.35476 10.4309 6.94772 10.2302 7.43539 9.82879C7.93414 9.41561 8.27772 8.84896 8.46614 8.12885H4.26001V5.54351H8.43289C8.24447 4.85881 7.90643 4.32168 7.41876 3.93211C6.9311 3.54254 6.34368 3.34775 5.65651 3.34775C4.57035 3.34775 3.63935 3.83176 2.86351 4.79979L0.785389 2.7811C1.35064 2.02557 2.05997 1.44712 2.91339 1.04574C3.77789 0.644368 4.74768 0.44368 5.82276 0.44368Z" fill="#082112"/>
<path d="M18.4374 8.34134H16.9411V13.087H13.666V0.691588H16.9411V5.5081H18.5205L21.2969 0.691588H24.7549L21.114 6.67681L24.7881 13.087H21.0807L18.4374 8.34134Z" fill="#082112"/>
<path d="M31.4482 13.3349C30.2291 13.3349 29.1318 13.0634 28.1565 12.5204C27.1922 11.9655 26.433 11.1982 25.8789 10.2184C25.3247 9.23853 25.0476 8.12885 25.0476 6.8893C25.0476 5.64976 25.3247 4.54007 25.8789 3.56025C26.433 2.58042 27.1922 1.81898 28.1565 1.27594C29.1318 0.721101 30.2291 0.44368 31.4482 0.44368C32.5122 0.44368 33.471 0.644368 34.3244 1.04574C35.1778 1.44712 35.8871 2.02557 36.4524 2.7811L34.3576 4.79979C33.604 3.83176 32.6896 3.34775 31.6145 3.34775C30.9827 3.34775 30.4175 3.49532 29.9187 3.79045C29.4311 4.08558 29.0487 4.50466 28.7716 5.0477C28.5056 5.57893 28.3726 6.1928 28.3726 6.8893C28.3726 7.58581 28.5056 8.20558 28.7716 8.74862C29.0487 9.27985 29.4311 9.69303 29.9187 9.98816C30.4175 10.2833 30.9827 10.4309 31.6145 10.4309C32.6896 10.4309 33.604 9.94684 34.3576 8.97882L36.4524 10.9975C35.8871 11.753 35.1778 12.3315 34.3244 12.7329C33.471 13.1342 32.5122 13.3349 31.4482 13.3349Z" fill="#082112"/>
<path d="M48.862 0.691588V13.087H45.6035V3.47171H41.1813V13.087H37.9394V0.691588H48.862Z" fill="#082112"/>
<path d="M60.693 10.3777V13.087H51.3498V0.691588H60.4769V3.40088H54.6083V5.49039H59.7787V8.11114H54.6083V10.3777H60.693Z" fill="#082112"/>
<path d="M75.0704 10.3069V15.5838H72.0613V13.087H64.6133V15.5838H61.5875V10.3069H62.0032C62.6903 10.2951 63.1725 9.79338 63.4495 8.80174C63.7377 7.81011 63.915 6.38168 63.9815 4.51646L64.1145 0.691588H73.491V10.3069H75.0704ZM66.8577 4.8175C66.8133 6.13968 66.7136 7.26117 66.5584 8.18197C66.4032 9.10277 66.165 9.81108 65.8435 10.3069H70.2492V3.47171H66.9075L66.8577 4.8175Z" fill="#082112"/>
<path d="M76.6445 0.691588H79.8863V7.96948L84.691 0.691588H87.7832V13.087H84.5413V5.82684L79.7533 13.087H76.6445V0.691588Z" fill="#082112"/>
<path d="M95.6022 0.691588C96.6551 0.691588 97.5694 0.880471 98.3453 1.25824C99.1211 1.6242 99.7196 2.15543 100.141 2.85194C100.562 3.53664 100.773 4.34529 100.773 5.2779C100.773 6.21051 100.562 7.01916 100.141 7.70386C99.7196 8.38856 99.1211 8.91979 98.3453 9.29756C97.5694 9.66352 96.6551 9.8465 95.6022 9.8465H93.5739V13.087H90.2821V0.691588H95.6022ZM95.4027 7.08409C96.0787 7.08409 96.5886 6.93062 96.9321 6.62369C97.2757 6.30495 97.4475 5.85635 97.4475 5.2779C97.4475 4.69944 97.2757 4.25085 96.9321 3.93211C96.5886 3.61337 96.0787 3.454 95.4027 3.454H93.5739V7.08409H95.4027Z" fill="#082112"/>
<path d="M108.145 13.3349C106.915 13.3349 105.807 13.0575 104.82 12.5027C103.845 11.9478 103.075 11.1805 102.509 10.2007C101.955 9.22083 101.678 8.11704 101.678 6.8893C101.678 5.66157 101.955 4.55778 102.509 3.57795C103.075 2.59812 103.845 1.83079 104.82 1.27594C105.807 0.721101 106.915 0.44368 108.145 0.44368C109.375 0.44368 110.478 0.721101 111.454 1.27594C112.44 1.83079 113.21 2.59812 113.764 3.57795C114.33 4.55778 114.612 5.66157 114.612 6.8893C114.612 8.11704 114.33 9.22083 113.764 10.2007C113.21 11.1805 112.44 11.9478 111.454 12.5027C110.478 13.0575 109.375 13.3349 108.145 13.3349ZM108.145 10.4309C108.733 10.4309 109.265 10.2833 109.741 9.98816C110.218 9.69303 110.595 9.27985 110.872 8.74862C111.149 8.20558 111.287 7.58581 111.287 6.8893C111.287 6.1928 111.149 5.57893 110.872 5.0477C110.595 4.50466 110.218 4.08558 109.741 3.79045C109.265 3.49532 108.733 3.34775 108.145 3.34775C107.558 3.34775 107.026 3.49532 106.549 3.79045C106.073 4.08558 105.696 4.50466 105.419 5.0477C105.142 5.57893 105.003 6.1928 105.003 6.8893C105.003 7.58581 105.142 8.20558 105.419 8.74862C105.696 9.27985 106.073 9.69303 106.549 9.98816C107.026 10.2833 107.558 10.4309 108.145 10.4309Z" fill="#082112"/>
<path d="M124.851 6.60598C125.538 6.84208 126.059 7.20804 126.414 7.70386C126.78 8.19968 126.962 8.81355 126.962 9.54547C126.962 10.6433 126.558 11.511 125.749 12.1485C124.951 12.7742 123.815 13.087 122.341 13.087H116.372V0.691588H122.025C123.421 0.691588 124.502 0.974913 125.267 1.54156C126.043 2.0964 126.43 2.88735 126.43 3.9144C126.43 4.51646 126.292 5.0477 126.015 5.5081C125.749 5.9685 125.361 6.33446 124.851 6.60598ZM119.614 5.64976H121.709C122.64 5.64976 123.105 5.24248 123.105 4.42793C123.105 3.61337 122.64 3.20609 121.709 3.20609H119.614V5.64976ZM122.208 10.5725C123.161 10.5725 123.637 10.1416 123.637 9.27985C123.637 8.44168 123.161 8.0226 122.208 8.0226H119.614V10.5725H122.208Z" fill="#082112"/>
<path d="M136.774 10.6788H131.853L130.938 13.087H127.58L132.717 0.691588H135.959L141.113 13.087H137.688L136.774 10.6788ZM135.809 8.09343L134.313 4.12689L132.817 8.09343H135.809Z" fill="#082112"/>
<path d="M153.519 0.691588V13.087H150.227V8.2528H145.738V13.087H142.446V0.691588H145.738V5.34873H150.227V0.691588H153.519Z" fill="#082112"/>
<path d="M156.019 0.691588H159.261V7.96948L164.066 0.691588H167.158V13.087H163.916V5.82684L159.128 13.087H156.019V0.691588Z" fill="#082112"/>
<path d="M179 10.3777V13.087H169.657V0.691588H178.784V3.40088H172.915V5.49039H178.086V8.11114H172.915V10.3777H179Z" fill="#082112"/>
</svg>
